<?xml version="1.0" encoding="utf-8"?>
<!-- Generator: Adobe Illustrator 16.0.0, SVG Export Plug-In . SVG Version: 6.00 Build 0)  -->
<!DOCTYPE svg PUBLIC "-//W3C//DTD SVG 1.1//EN" "http://www.w3.org/Graphics/SVG/1.1/DTD/svg11.dtd">
<svg version="1.1" id="Layer_1" xmlns="http://www.w3.org/2000/svg" xmlns:xlink="http://www.w3.org/1999/xlink" x="0px" y="0px"
	 width="1416.716px" height="991.583px" viewBox="0 0 1416.716 991.583" enable-background="new 0 0 1416.716 991.583"
	 xml:space="preserve">
<g>
	<path fill="#FFFFFF" d="M23.167,159.809v592.356h710.028l98.322-103.704l113.132,122.551l175.896-190.889
		c0,0-119.328-109.222-112.27-114.716c7.077-5.474,112.27-123.313,112.27-123.313L954.61,159.809L833.87,276.106L719.961,159.809
		H23.167z"/>
	<polygon fill="#E74985" points="1193.146,22.421 1193.146,118.362 1090.646,118.362 1090.646,220.856 1193.146,220.856 
		1193.146,297.198 1297.829,297.198 1297.829,218.698 1387.257,214.336 1387.257,113.995 1300.005,116.191 1295.629,22.421 	"/>
	<path fill="#1F1819" d="M1322.331,90.097V0h-245.994L828.588,248.32L724.875,143.417H-0.607V777.75h734.264l93.857-99.561
		L945.261,796.7l214.26-215.494L1041.77,462.736l146.06-147.229h135.723v-77.391h85.909V90.097H1322.331z M365.554,732.25v0.082
		h-77.5h-54.013H47.435V191.092h240.618c57.578,0,104.292,46.643,104.292,104.238c0,32.238-14.646,61.021-37.575,80.113
		c2.517-0.072,5.034-0.166,7.545-0.166c98.595,0,178.528,79.926,178.528,178.548C540.844,651.334,462.653,730.505,365.554,732.25
		 M979.646,460.785l117.192,118.352L946.212,731.195L828.998,612.858L712.307,730.68L562.781,579.648l116.672-117.805
		L562.254,343.462l150.56-152.04l117.211,118.363L946.747,191.92l149.563,151.066L979.646,460.785z M1367.29,197.364h-88.931v84.207
		h-65.308v-84.786h-90.663V131.05h90.078V41.807h65.333v89.751h89.49V197.364z"/>
	<polygon fill="#1F1819" points="63.624,828.193 63.624,846.703 41.273,846.703 41.273,988.887 22.428,988.887 22.428,846.703 
		0,846.703 0,828.193 	"/>
	<polygon fill="#1F1819" points="72.789,828.193 91.629,828.193 91.629,899.25 117.575,899.25 117.575,828.193 136.416,828.193 
		136.416,988.887 117.575,988.887 117.575,917.846 91.629,917.846 91.629,988.887 72.789,988.887 	"/>
	<polygon fill="#1F1819" points="203.748,899.25 203.748,917.846 170.955,917.846 170.955,970.375 209.048,970.375 209.048,988.887 
		152.115,988.887 152.115,828.196 209.048,828.196 209.048,846.703 170.955,846.703 170.955,899.25 	"/>
	<path fill="#1F1819" d="M256.591,828.196h34.337c19.527,0.047,29.29,10.854,29.29,32.389v24.881
		c0,9.847-5.364,17.532-16.067,23.088c10.703,5.532,16.067,13.239,16.067,23.082v24.961c0,21.479-10.313,32.239-30.921,32.291
		h-32.705V828.196z M275.433,846.708v52.548h10.034c3.639,0,6.251-0.283,7.832-0.824c5.383-2.226,8.074-6.542,8.074-12.967v-24.881
		c0-9.247-4.294-13.876-12.889-13.876H275.433z M275.433,917.846v52.53h13.051c8.595,0,12.889-4.591,12.889-13.78v-24.961
		c0-6.472-2.69-10.773-8.074-12.883c-1.53-0.611-4.131-0.906-7.832-0.906H275.433z"/>
	<path fill="#1F1819" d="M395.463,959.292c0,21.479-10.611,32.235-31.817,32.29c-21.207,0-31.816-10.761-31.816-32.29V857.817
		c0-21.484,10.61-32.215,31.816-32.215c21.206,0,31.817,10.73,31.817,32.215V959.292z M376.615,857.817
		c0-9.092-4.295-13.658-12.888-13.709h-0.164c-8.594,0-12.886,4.562-12.886,13.709v101.476c0,9.13,4.324,13.695,12.969,13.695
		c8.648,0,12.969-4.565,12.969-13.695V857.817z"/>
	<polygon fill="#1F1819" points="420.942,828.193 438.233,880.327 455.605,828.193 474.375,828.193 447.62,908.554 474.375,988.887 
		455.605,988.887 438.233,936.776 420.942,988.887 402.183,988.887 428.851,908.554 402.183,828.193 	"/>
	<path fill="#1F1819" d="M518.657,828.196h32.302c19.515,0.05,29.277,10.854,29.277,32.389v24.881
		c0,15.87-7.043,26.101-21.121,30.663c-3.428,1.148-8.488,1.721-15.182,1.721h-6.44v71.039h-18.836V828.196z M537.493,846.708
		v52.548h7.999c3.639,0,6.25-0.283,7.828-0.824c5.382-2.226,8.072-6.542,8.072-12.967v-24.881c0-9.245-4.299-13.876-12.883-13.876
		H537.493z"/>
	<polygon fill="#1F1819" points="591.855,988.888 591.855,828.196 610.698,828.196 610.698,970.376 648.79,970.376 648.79,988.888 	
		"/>
	<path fill="#1F1819" d="M719.961,959.205c0,21.534-10.613,32.323-31.816,32.378c-21.217,0-31.813-10.793-31.813-32.378v-131.09
		h18.846v131.09c0,9.189,4.324,13.783,12.967,13.783s12.963-4.594,12.963-13.783v-131.09h18.854V959.205z"/>
	<path fill="#1F1819" d="M733.195,857.817c0-21.484,10.625-32.215,31.816-32.215c21.216,0,31.811,10.73,31.811,32.215v19.819
		h-18.823v-19.819c0-9.092-4.296-13.658-12.902-13.709h-0.146c-8.616,0-12.9,4.562-12.9,13.709v15.095
		c0,8.208,7.834,17.913,23.496,29.107c14.179,10.167,21.275,22.266,21.275,36.312v20.962c0,21.529-10.57,32.29-31.726,32.29
		c-21.261-0.055-31.901-10.811-31.901-32.29v-19.827h18.855v19.827c0,9.13,4.347,13.695,13.046,13.695
		c8.606,0,12.902-4.565,12.902-13.695v-18.938c0-8.853-7.842-18.902-23.496-30.09c-14.198-10.165-21.308-22.458-21.308-36.866
		V857.817z"/>
	<polygon fill="#1F1819" points="846.822,828.193 866.138,828.193 893.384,943.623 893.384,828.532 910.445,828.285 
		910.445,988.887 891.109,988.887 864.767,876.331 864.767,988.887 846.822,988.887 	"/>
	<polygon fill="#1F1819" points="977.785,899.25 977.785,917.846 944.992,917.846 944.992,970.375 983.08,970.375 983.08,988.887 
		926.138,988.887 926.138,828.196 983.08,828.196 983.08,846.703 944.992,846.703 944.992,899.25 	"/>
	<polygon fill="#1F1819" points="1051.786,828.193 1051.786,846.703 1029.447,846.703 1029.447,988.887 1010.587,988.887 
		1010.587,846.703 988.158,846.703 988.158,828.193 	"/>
	<polygon fill="#1F1819" points="1149.294,972.747 1168.387,828.193 1187.476,828.193 1180.051,884.159 1163.584,988.888 
		1135.188,988.888 1120.581,888.077 1105.987,988.888 1077.514,988.888 1060.958,884 1053.621,828.193 1072.543,828.193 
		1091.718,972.747 1110.804,828.193 1130.146,828.193 	"/>
	<path fill="#1F1819" d="M1257.83,959.292c0,21.479-10.598,32.235-31.824,32.29c-21.2,0-31.808-10.761-31.808-32.29V857.817
		c0-21.484,10.607-32.215,31.808-32.215c21.227,0,31.824,10.73,31.824,32.215V959.292z M1238.983,857.817
		c0-9.092-4.298-13.658-12.888-13.709h-0.155c-8.596,0-12.886,4.562-12.886,13.709v101.476c0,9.13,4.315,13.695,12.951,13.695
		c8.654,0,12.978-4.565,12.978-13.695V857.817z"/>
	<path fill="#1F1819" d="M1271.89,828.196h32.307c19.514,0.05,29.279,10.854,29.279,32.389v24.881
		c0,13.426-6.506,22.551-19.496,27.328l26.514,76.095h-20.799l-21.62-73.157l-7.337,0.98v72.177h-18.848V828.196z M1290.737,846.708
		v52.548h7.985c3.653,0,6.265-0.283,7.835-0.824c5.381-2.226,8.075-6.542,8.075-12.967v-24.881c0-9.245-4.297-13.876-12.889-13.876
		H1290.737z"/>
	<polygon fill="#1F1819" points="1384.985,908.553 1416.716,988.888 1396.651,988.888 1366.87,913.597 1366.87,988.888 
		1348.026,988.888 1348.026,828.19 1366.87,828.19 1366.87,903.821 1396.651,828.19 1416.716,828.19 	"/>
</g>
</svg>
