<svg width="180" height="57" viewBox="0 0 180 57" fill="none" xmlns="http://www.w3.org/2000/svg">
<g clip-path="url(#clip0)">
<g clip-path="url(#clip1)">
<path d="M10.0973 0.809658C10.0973 0.674715 10.1448 0.560013 10.2398 0.465553C10.3348 0.371093 10.4501 0.323863 10.5858 0.323863H16.3673C16.5031 0.323863 16.6184 0.371093 16.7134 0.465553C16.8084 0.560013 16.8559 0.674715 16.8559 0.809658V28.1761C16.8559 28.3111 16.8084 28.4258 16.7134 28.5202C16.6184 28.6147 16.5031 28.6619 16.3673 28.6619H10.5858C10.4501 28.6619 10.3348 28.6147 10.2398 28.5202C10.1448 28.4258 10.0973 28.3111 10.0973 28.1761V17.5696C10.0973 17.4347 10.0294 17.3672 9.89369 17.3672H6.96223C6.82651 17.3672 6.75865 17.4347 6.75865 17.5696V28.1761C6.75865 28.3111 6.71115 28.4258 6.61615 28.5202C6.52115 28.6147 6.40579 28.6619 6.27007 28.6619H0.488577C0.352861 28.6619 0.237503 28.6147 0.142502 28.5202C0.0475006 28.4258 0 28.3111 0 28.1761V0.809658C0 0.674715 0.0475006 0.560013 0.142502 0.465553C0.237503 0.371093 0.352861 0.323863 0.488577 0.323863H6.27007C6.40579 0.323863 6.52115 0.371093 6.61615 0.465553C6.71115 0.560013 6.75865 0.674715 6.75865 0.809658V11.3757C6.75865 11.5107 6.82651 11.5781 6.96223 11.5781H9.89369C10.0294 11.5781 10.0973 11.5107 10.0973 11.3757V0.809658ZM25.3246 28.581C25.1889 28.581 25.0735 28.5337 24.9785 28.4393C24.8835 28.3448 24.836 28.2301 24.836 28.0952V18.1364L24.7953 17.8935L19.0952 0.890624C19.0681 0.836647 19.0545 0.769176 19.0545 0.68821C19.0545 0.445313 19.1902 0.323863 19.4617 0.323863H25.5689C25.8403 0.323863 26.0167 0.472301 26.0982 0.769176L28.1339 9.67542C28.1611 9.78338 28.2018 9.83736 28.2561 9.83736C28.3103 9.83736 28.3511 9.78338 28.3782 9.67542L30.4139 0.769176C30.4954 0.472301 30.6718 0.323863 30.9432 0.323863H37.0504C37.2133 0.323863 37.3287 0.371093 37.3965 0.465553C37.4644 0.560013 37.4712 0.701704 37.4169 0.890624L31.6354 17.8935L31.5947 18.1364V28.0952C31.5947 28.2301 31.5472 28.3448 31.4522 28.4393C31.3572 28.5337 31.2418 28.581 31.1061 28.581H25.3246ZM48.7356 0.323863C50.3099 0.323863 51.701 0.694957 52.9088 1.43714C54.1167 2.17933 55.0599 3.22514 55.7385 4.57457C56.4171 5.92401 56.7564 7.46236 56.7564 9.18963C56.7564 10.8899 56.4375 12.381 55.7996 13.663C55.1617 14.945 54.2592 15.9368 53.0921 16.6385C51.9249 17.3402 50.5813 17.691 49.0613 17.691H46.4148C46.2791 17.691 46.2113 17.7585 46.2113 17.8935V28.1761C46.2113 28.3111 46.1638 28.4258 46.0688 28.5202C45.9738 28.6147 45.8584 28.6619 45.7227 28.6619H39.9412C39.8055 28.6619 39.6901 28.6147 39.5951 28.5202C39.5001 28.4258 39.4526 28.3111 39.4526 28.1761V0.809658C39.4526 0.674715 39.5001 0.560013 39.5951 0.465553C39.6901 0.371093 39.8055 0.323863 39.9412 0.323863H48.7356ZM47.5548 12.5092C48.2877 12.5092 48.8781 12.2326 49.3259 11.6793C49.7738 11.1261 49.9977 10.3501 49.9977 9.35156C49.9977 8.299 49.7738 7.48935 49.3259 6.92258C48.8781 6.35582 48.2877 6.07244 47.5548 6.07244H46.4148C46.2791 6.07244 46.2113 6.13991 46.2113 6.27486V12.3068C46.2113 12.4418 46.2791 12.5092 46.4148 12.5092H47.5548ZM67.1387 28.9858C64.5058 28.9858 62.409 28.2301 60.8482 26.7187C59.2875 25.2074 58.5071 23.1697 58.5071 20.6058V8.37997C58.5071 5.84304 59.2875 3.81214 60.8482 2.28729C62.409 0.762429 64.5058 0 67.1387 0C69.7444 0 71.8412 0.762429 73.4291 2.28729C75.017 3.81214 75.8109 5.84304 75.8109 8.37997V20.6058C75.8109 23.1697 75.017 25.2074 73.4291 26.7187C71.8412 28.2301 69.7444 28.9858 67.1387 28.9858ZM67.1387 23.2372C67.7358 23.2372 68.204 23.0281 68.5433 22.6097C68.8826 22.1914 69.0522 21.6179 69.0522 20.8892V8.09659C69.0522 7.3679 68.8826 6.79439 68.5433 6.37606C68.204 5.95774 67.7358 5.74858 67.1387 5.74858C66.5415 5.74858 66.0801 5.95774 65.7543 6.37606C65.4286 6.79439 65.2658 7.3679 65.2658 8.09659V20.8892C65.2658 21.6179 65.4286 22.1914 65.7543 22.6097C66.0801 23.0281 66.5415 23.2372 67.1387 23.2372ZM95.1504 0.323863C95.2861 0.323863 95.4015 0.371093 95.4965 0.465553C95.5915 0.560013 95.639 0.674715 95.639 0.809658V5.58665C95.639 5.72159 95.5915 5.83629 95.4965 5.93075C95.4015 6.02521 95.2861 6.07244 95.1504 6.07244H90.1018C89.9661 6.07244 89.8982 6.13991 89.8982 6.27486V28.1761C89.8982 28.3111 89.8507 28.4258 89.7557 28.5202C89.6607 28.6147 89.5453 28.6619 89.4096 28.6619H83.6281C83.4924 28.6619 83.3771 28.6147 83.2821 28.5202C83.1871 28.4258 83.1396 28.3111 83.1396 28.1761V6.27486C83.1396 6.13991 83.0717 6.07244 82.936 6.07244H78.0909C77.9552 6.07244 77.8399 6.02521 77.7449 5.93075C77.6498 5.83629 77.6023 5.72159 77.6023 5.58665V0.809658C77.6023 0.674715 77.6498 0.560013 77.7449 0.465553C77.8399 0.371093 77.9552 0.323863 78.0909 0.323863H95.1504ZM108.016 0.809658C108.016 0.674715 108.064 0.560013 108.159 0.465553C108.254 0.371093 108.369 0.323863 108.505 0.323863H114.286C114.422 0.323863 114.537 0.371093 114.632 0.465553C114.727 0.560013 114.775 0.674715 114.775 0.809658V28.1761C114.775 28.3111 114.727 28.4258 114.632 28.5202C114.537 28.6147 114.422 28.6619 114.286 28.6619H108.505C108.369 28.6619 108.254 28.6147 108.159 28.5202C108.064 28.4258 108.016 28.3111 108.016 28.1761V17.5696C108.016 17.4347 107.948 17.3672 107.813 17.3672H104.881C104.746 17.3672 104.678 17.4347 104.678 17.5696V28.1761C104.678 28.3111 104.63 28.4258 104.535 28.5202C104.44 28.6147 104.325 28.6619 104.189 28.6619H98.4076C98.2719 28.6619 98.1565 28.6147 98.0615 28.5202C97.9665 28.4258 97.919 28.3111 97.919 28.1761V0.809658C97.919 0.674715 97.9665 0.560013 98.0615 0.465553C98.1565 0.371093 98.2719 0.323863 98.4076 0.323863H104.189C104.325 0.323863 104.44 0.371093 104.535 0.465553C104.63 0.560013 104.678 0.674715 104.678 0.809658V11.3757C104.678 11.5107 104.746 11.5781 104.881 11.5781H107.813C107.948 11.5781 108.016 11.5107 108.016 11.3757V0.809658ZM133.178 5.58665C133.178 5.72159 133.131 5.83629 133.036 5.93075C132.941 6.02521 132.825 6.07244 132.689 6.07244H124.506C124.37 6.07244 124.302 6.13991 124.302 6.27486V11.3757C124.302 11.5107 124.37 11.5781 124.506 11.5781H128.984C129.12 11.5781 129.235 11.6254 129.33 11.7198C129.425 11.8143 129.473 11.929 129.473 12.0639V16.8814C129.473 17.0163 129.425 17.131 129.33 17.2255C129.235 17.32 129.12 17.3672 128.984 17.3672H124.506C124.37 17.3672 124.302 17.4347 124.302 17.5696V22.7109C124.302 22.8459 124.37 22.9133 124.506 22.9133H132.689C132.825 22.9133 132.941 22.9606 133.036 23.055C133.131 23.1495 133.178 23.2642 133.178 23.3991V28.1761C133.178 28.3111 133.131 28.4258 133.036 28.5202C132.941 28.6147 132.825 28.6619 132.689 28.6619H118.032C117.896 28.6619 117.781 28.6147 117.686 28.5202C117.591 28.4258 117.544 28.3111 117.544 28.1761V0.809658C117.544 0.674715 117.591 0.560013 117.686 0.465553C117.781 0.371093 117.896 0.323863 118.032 0.323863H132.689C132.825 0.323863 132.941 0.371093 133.036 0.465553C133.131 0.560013 133.178 0.674715 133.178 0.809658V5.58665ZM143.52 28.9858C141.864 28.9858 140.405 28.6687 139.143 28.0344C137.881 27.4002 136.903 26.5096 136.211 25.3626C135.519 24.2156 135.173 22.9134 135.173 21.456V20.0795C135.173 19.9446 135.221 19.8299 135.316 19.7354C135.411 19.641 135.526 19.5937 135.662 19.5937H141.402C141.538 19.5937 141.653 19.641 141.748 19.7354C141.843 19.8299 141.891 19.9446 141.891 20.0795V21.1321C141.891 21.7798 142.04 22.2926 142.339 22.6705C142.637 23.0483 143.031 23.2372 143.52 23.2372C144.008 23.2372 144.415 23.055 144.741 22.6907C145.067 22.3263 145.23 21.8608 145.23 21.294C145.23 20.6733 144.985 20.1133 144.497 19.614C144.008 19.1147 143.031 18.3388 141.565 17.2862C140.208 16.3146 139.095 15.4442 138.227 14.6751C137.358 13.9059 136.612 12.9478 135.987 11.8008C135.363 10.6538 135.051 9.32457 135.051 7.81321C135.051 6.27486 135.397 4.91193 136.089 3.72443C136.781 2.53693 137.752 1.61932 139 0.97159C140.249 0.323863 141.687 0 143.316 0C144.972 0 146.437 0.33061 147.713 0.991832C148.989 1.65305 149.973 2.58416 150.665 3.78516C151.357 4.98615 151.703 6.36932 151.703 7.93466V8.90625C151.703 9.04119 151.656 9.15589 151.561 9.25035C151.466 9.34481 151.35 9.39204 151.215 9.39204H145.515C145.379 9.39204 145.264 9.34481 145.169 9.25035C145.074 9.15589 145.026 9.04119 145.026 8.90625V7.77273C145.026 7.17898 144.87 6.69318 144.558 6.31534C144.246 5.9375 143.832 5.74858 143.316 5.74858C142.855 5.74858 142.468 5.9375 142.156 6.31534C141.843 6.69318 141.687 7.19247 141.687 7.81321C141.687 8.48792 141.925 9.09517 142.4 9.63494C142.875 10.1747 143.818 10.9574 145.23 11.983C146.94 13.2514 148.229 14.277 149.098 15.0597C149.966 15.8423 150.645 16.7127 151.133 17.6708C151.622 18.6289 151.866 19.7557 151.866 21.0511C151.866 23.4801 151.099 25.4098 149.566 26.8402C148.032 28.2706 146.017 28.9858 143.52 28.9858ZM154.553 28.6619C154.418 28.6619 154.302 28.6147 154.207 28.5202C154.112 28.4258 154.065 28.3111 154.065 28.1761V0.809658C154.065 0.674715 154.112 0.560013 154.207 0.465553C154.302 0.371093 154.418 0.323863 154.553 0.323863H160.335C160.47 0.323863 160.586 0.371093 160.681 0.465553C160.776 0.560013 160.823 0.674715 160.823 0.809658V28.1761C160.823 28.3111 160.776 28.4258 160.681 28.5202C160.586 28.6147 160.47 28.6619 160.335 28.6619H154.553ZM171.653 28.9858C169.998 28.9858 168.539 28.6687 167.277 28.0344C166.014 27.4002 165.037 26.5096 164.345 25.3626C163.653 24.2156 163.307 22.9134 163.307 21.456V20.0795C163.307 19.9446 163.354 19.8299 163.449 19.7354C163.544 19.641 163.66 19.5937 163.796 19.5937H169.536C169.672 19.5937 169.787 19.641 169.882 19.7354C169.977 19.8299 170.025 19.9446 170.025 20.0795V21.1321C170.025 21.7798 170.174 22.2926 170.473 22.6705C170.771 23.0483 171.165 23.2372 171.653 23.2372C172.142 23.2372 172.549 23.055 172.875 22.6907C173.201 22.3263 173.363 21.8608 173.363 21.294C173.363 20.6733 173.119 20.1133 172.631 19.614C172.142 19.1147 171.165 18.3388 169.699 17.2862C168.342 16.3146 167.229 15.4442 166.361 14.6751C165.492 13.9059 164.746 12.9478 164.121 11.8008C163.497 10.6538 163.185 9.32457 163.185 7.81321C163.185 6.27486 163.531 4.91193 164.223 3.72443C164.915 2.53693 165.886 1.61932 167.134 0.97159C168.383 0.323863 169.821 0 171.45 0C173.106 0 174.571 0.33061 175.847 0.991832C177.123 1.65305 178.107 2.58416 178.799 3.78516C179.491 4.98615 179.837 6.36932 179.837 7.93466V8.90625C179.837 9.04119 179.79 9.15589 179.695 9.25035C179.6 9.34481 179.484 9.39204 179.349 9.39204H173.648C173.513 9.39204 173.397 9.34481 173.302 9.25035C173.207 9.15589 173.16 9.04119 173.16 8.90625V7.77273C173.16 7.17898 173.004 6.69318 172.692 6.31534C172.38 5.9375 171.966 5.74858 171.45 5.74858C170.988 5.74858 170.602 5.9375 170.29 6.31534C169.977 6.69318 169.821 7.19247 169.821 7.81321C169.821 8.48792 170.059 9.09517 170.534 9.63494C171.009 10.1747 171.952 10.9574 173.363 11.983C175.074 13.2514 176.363 14.277 177.231 15.0597C178.1 15.8423 178.779 16.7127 179.267 17.6708C179.756 18.6289 180 19.7557 180 21.0511C180 23.4801 179.233 25.4098 177.7 26.8402C176.166 28.2706 174.151 28.9858 171.653 28.9858ZM0.488577 57C0.352861 57 0.237503 56.9528 0.142502 56.8583C0.0475006 56.7638 0 56.6491 0 56.5142V29.1477C0 29.0128 0.0475006 28.8981 0.142502 28.8036C0.237503 28.7092 0.352861 28.6619 0.488577 28.6619H6.14793C6.41936 28.6619 6.60936 28.7834 6.71794 29.0263L9.9344 35.3821C10.0158 35.4901 10.0973 35.4901 10.1787 35.3821L13.3952 29.0263C13.5309 28.7834 13.7209 28.6619 13.9652 28.6619H19.6652C19.8009 28.6619 19.9163 28.7092 20.0113 28.8036C20.1063 28.8981 20.1538 29.0128 20.1538 29.1477V56.5142C20.1538 56.6491 20.1063 56.7638 20.0113 56.8583C19.9163 56.9528 19.8009 57 19.6652 57H13.8837C13.748 57 13.6327 56.9528 13.5377 56.8583C13.4427 56.7638 13.3952 56.6491 13.3952 56.5142V39.4709C13.3952 39.3629 13.368 39.3022 13.3137 39.2887C13.2594 39.2752 13.2052 39.3089 13.1509 39.3899L10.3416 44.6527C10.233 44.8956 10.1515 45.017 10.0973 45.017C10.043 45.017 9.94798 44.8956 9.81226 44.6527L7.00294 39.3089C6.94865 39.228 6.89437 39.1942 6.84008 39.2077C6.78579 39.2212 6.75865 39.282 6.75865 39.3899V56.5142C6.75865 56.6491 6.71115 56.7638 6.61615 56.8583C6.52115 56.9528 6.40579 57 6.27007 57H0.488577ZM38.4347 33.9247C38.4347 34.0597 38.3872 34.1744 38.2922 34.2688C38.1972 34.3633 38.0819 34.4105 37.9462 34.4105H29.7625C29.6268 34.4105 29.5589 34.478 29.5589 34.6129V39.7138C29.5589 39.8487 29.6268 39.9162 29.7625 39.9162H34.2411C34.3768 39.9162 34.4922 39.9634 34.5872 40.0579C34.6822 40.1523 34.7297 40.267 34.7297 40.402V45.2195C34.7297 45.3544 34.6822 45.4691 34.5872 45.5636C34.4922 45.658 34.3768 45.7052 34.2411 45.7052H29.7625C29.6268 45.7052 29.5589 45.7727 29.5589 45.9077V51.049C29.5589 51.1839 29.6268 51.2514 29.7625 51.2514H37.9462C38.0819 51.2514 38.1972 51.2986 38.2922 51.3931C38.3872 51.4876 38.4347 51.6023 38.4347 51.7372V56.5142C38.4347 56.6491 38.3872 56.7638 38.2922 56.8583C38.1972 56.9528 38.0819 57 37.9462 57H23.2888C23.1531 57 23.0378 56.9528 22.9428 56.8583C22.8478 56.7638 22.8003 56.6491 22.8003 56.5142V29.1477C22.8003 29.0128 22.8478 28.8981 22.9428 28.8036C23.0378 28.7092 23.1531 28.6619 23.2888 28.6619H37.9462C38.0819 28.6619 38.1972 28.7092 38.2922 28.8036C38.3872 28.8981 38.4347 29.0128 38.4347 29.1477V33.9247ZM41.2441 57C41.1083 57 40.993 56.9528 40.898 56.8583C40.803 56.7638 40.7555 56.6491 40.7555 56.5142V29.1477C40.7555 29.0128 40.803 28.8981 40.898 28.8036C40.993 28.7092 41.1083 28.6619 41.2441 28.6619H49.0206C51.6263 28.6619 53.7164 29.3906 55.2907 30.848C56.865 32.3054 57.6521 34.2351 57.6521 36.6371V49.0249C57.6521 51.4268 56.865 53.3565 55.2907 54.8139C53.7164 56.2713 51.6263 57 49.0206 57H41.2441ZM47.5141 51.049C47.5141 51.1839 47.582 51.2514 47.7177 51.2514L48.8577 51.2109C49.4277 51.1839 49.9027 50.9343 50.2827 50.462C50.6627 49.9897 50.8663 49.3622 50.8935 48.5795V37.0824C50.8935 36.2727 50.7035 35.625 50.3235 35.1392C49.9434 34.6534 49.4413 34.4105 48.817 34.4105H47.7177C47.582 34.4105 47.5141 34.478 47.5141 34.6129V51.049ZM60.7871 57C60.6514 57 60.5361 56.9528 60.4411 56.8583C60.3461 56.7638 60.2986 56.6491 60.2986 56.5142V29.1477C60.2986 29.0128 60.3461 28.8981 60.4411 28.8036C60.5361 28.7092 60.6514 28.6619 60.7871 28.6619H66.5686C66.7044 28.6619 66.8197 28.7092 66.9147 28.8036C67.0097 28.8981 67.0572 29.0128 67.0572 29.1477V56.5142C67.0572 56.6491 67.0097 56.7638 66.9147 56.8583C66.8197 56.9528 66.7044 57 66.5686 57H60.7871ZM82.366 57C82.0403 57 81.8638 56.8516 81.8367 56.5547L81.3481 53.0327C81.3481 52.8977 81.2667 52.8302 81.1038 52.8302H76.788C76.6252 52.8302 76.5438 52.8977 76.5438 53.0327L75.933 56.5547C75.9059 56.8516 75.7295 57 75.4038 57H69.6223C69.2694 57 69.1337 56.8246 69.2151 56.4737L75.1187 29.1072C75.173 28.8104 75.3495 28.6619 75.648 28.6619H82.2845C82.5831 28.6619 82.7596 28.8104 82.8138 29.1072L88.7175 56.4737L88.7582 56.6356C88.7582 56.8785 88.6089 57 88.3103 57H82.366ZM77.4802 47.446C77.4531 47.581 77.5073 47.6484 77.6431 47.6484H80.3302C80.4388 47.6484 80.4931 47.581 80.4931 47.446L79.2309 38.7827C79.2038 38.7017 79.1631 38.6612 79.1088 38.6612C79.0545 38.6612 79.0138 38.7017 78.9866 38.7827L77.4802 47.446Z" fill="white"/>
</g>
<g clip-path="url(#clip2)">
<path d="M143.514 56.2251V55.4189C143.514 54.2096 141.973 53.4034 140.514 52.7585C138.568 51.8716 137.838 51.2267 137.838 51.0654V50.9042C139.378 50.5817 140.27 49.8562 140.351 49.8562C140.432 49.7755 140.514 49.6949 140.514 49.6143C140.514 49.5337 140.514 49.3724 140.432 49.2918C140.432 49.2918 139.703 48.3244 139.703 45.3415C139.703 43.0035 137.838 41.1493 135.486 41.1493C135.243 41.1493 134.919 41.1493 134.676 41.2299V34.3773C134.676 33.0874 133.297 32.0393 132.081 32.0393H103.297C102.162 32.0393 101.351 32.9261 101.351 34.3773V51.7104C101.351 53.0003 102.081 53.8065 103.297 53.8065H111.081V56.2251H90V57.0313H114.973H143.108H150V56.2251H143.514ZM103.297 53.0003C102.568 53.0003 102.162 52.5972 102.162 51.7104V34.3773C102.162 34.0548 102.243 32.8455 103.297 32.8455H132C132.811 32.8455 133.784 33.5711 133.784 34.3773V41.4718C132.243 42.1167 131.189 43.5679 131.189 45.3415C131.189 45.4221 131.189 45.5027 131.189 45.5833C131.189 48.2438 130.459 49.2918 130.459 49.2918C130.297 49.4531 130.378 49.6949 130.541 49.8562C130.541 49.8562 131.514 50.5817 132.973 50.9042V51.0654C132.973 51.3073 132.081 52.0329 130.297 52.8391C130.135 52.9197 129.973 53.0003 129.811 53.0809H128.189C127.622 52.7584 126.973 52.436 126.324 52.1135C125.108 51.4685 124.865 51.0654 124.865 50.6623C126.162 49.05 126.973 46.4702 126.973 44.9384C126.973 42.5198 125.027 40.5849 122.595 40.5849C120.162 40.5849 118.216 42.5198 118.216 44.9384C118.216 46.4702 119.108 49.1306 120.324 50.743C120.243 51.1461 120 51.5492 118.865 52.1135C118.297 52.436 117.649 52.7584 117 53.0809H103.297V53.0003ZM111.892 53.8065H115.541C115.459 53.8065 115.459 53.8871 115.378 53.8871C114.811 54.2096 114.324 55.0964 114.324 55.822V55.9832C114.324 56.0638 114.324 56.1445 114.324 56.2251H111.892V53.8065ZM115.135 56.2251C115.135 56.1445 115.135 56.0638 115.135 55.9832V55.822C115.135 55.3383 115.459 54.7739 115.784 54.6127C117.081 53.8871 118.216 53.2422 119.189 52.7585C120.568 52.1135 121.054 51.4685 121.135 50.5011C121.135 50.4205 121.135 50.2593 121.054 50.1786C119.838 48.8081 119.027 46.2283 119.027 44.7771C119.027 42.8423 120.649 41.2299 122.595 41.2299C124.541 41.2299 126.162 42.8423 126.162 44.7771C126.162 46.1477 125.351 48.7275 124.135 50.098C124.054 50.2593 124.054 50.3399 124.054 50.4205C124.135 51.3879 124.622 52.0329 126 52.6778C126.973 53.1615 127.865 53.7259 128.595 54.0484L128.838 54.2096C129 54.2902 129.081 54.2902 129.243 54.2096C129.649 53.9677 130.135 53.7259 130.622 53.484C132.081 52.8391 133.784 51.8716 133.784 50.9848V50.5817C133.784 50.4205 133.622 50.1786 133.459 50.1786C132.486 50.0174 131.676 49.6143 131.351 49.3724C131.595 48.8081 132 47.5988 132.081 45.5027V45.4221C132.081 45.3415 132.081 45.3415 132.081 45.2609C132.081 43.4066 133.622 41.8749 135.486 41.8749C137.351 41.8749 138.892 43.4066 138.892 45.2609C138.892 47.5988 139.297 48.7275 139.622 49.2918C139.216 49.5337 138.486 49.9368 137.432 50.098C137.27 50.098 137.108 50.2593 137.108 50.5011V50.9848C137.108 51.7104 138.162 52.5166 140.27 53.484C141.892 54.2096 142.784 54.8546 142.784 55.4189V56.2251H115.135Z" fill="#4654A3"/>
</g>
</g>
<defs>
<clipPath id="clip0">
<rect width="180" height="57" fill="white"/>
</clipPath>
<clipPath id="clip1">
<rect width="180" height="57" fill="white"/>
</clipPath>
<clipPath id="clip2">
<rect width="60" height="24.992" fill="white" transform="translate(90 32.0392)"/>
</clipPath>
</defs>
</svg>
