<?xml version="1.0" encoding="UTF-8" standalone="no"?>
<!-- Created with Inkscape (http://www.inkscape.org/) -->
<svg
   xmlns:dc="http://purl.org/dc/elements/1.1/"
   xmlns:cc="http://web.resource.org/cc/"
   xmlns:rdf="http://www.w3.org/1999/02/22-rdf-syntax-ns#"
   xmlns:svg="http://www.w3.org/2000/svg"
   xmlns="http://www.w3.org/2000/svg"
   xmlns:sodipodi="http://sodipodi.sourceforge.net/DTD/sodipodi-0.dtd"
   xmlns:inkscape="http://www.inkscape.org/namespaces/inkscape"
   width="201"
   height="61"
   id="svg2"
   sodipodi:version="0.32"
   inkscape:version="0.45.1"
   version="1.0"
   inkscape:output_extension="org.inkscape.output.svg.inkscape">
  <g
     inkscape:label="Layer 1"
     inkscape:groupmode="layer"
     id="layer1"
     transform="translate(-28.816003,-973.81531)">
    <g
       id="g27219"
       transform="matrix(1,0,0,-1,236.79325,312.90509)" />
    <g
       id="g2311"
       transform="matrix(4.9852486,0,0,4.9852486,-114.83922,-4124.0007)">
      <g
         transform="matrix(1,0,0,-1,-129.64084,1153.1863)"
         clip-path="url(#id297)"
         id="g27871">
        <g
           transform="translate(162.9889,119.7992)"
           id="g27873">
          <path
             style="fill:#ffffff;fill-rule:nonzero;stroke:none"
             d="M 0,0 L 2.257,0 C 4.385,0 6.037,1.119 6.037,4.734 C 6.037,8.349 4.385,9.449 2.44,9.449 L 0,9.449 L 0,0 z M -4.532,0 L -3.358,0 C -2.936,0 -2.569,0.147 -2.569,0.624 L -2.569,8.826 C -2.569,9.303 -2.936,9.449 -3.358,9.449 L -4.532,9.449 L -4.532,10.807 L 2.789,10.807 C 6.477,10.807 8.917,8.752 8.917,4.734 C 8.917,0.716 6.477,-1.358 2.789,-1.358 L -4.532,-1.358 L -4.532,0 z "
             id="path27875" />
        </g>
        <g
           transform="translate(177.7473,123.1769)"
           id="g27877">
          <path
             style="fill:#ffffff;fill-rule:nonzero;stroke:none"
             d="M 0,0 L -1.918,-0.869 C -2.443,-1.104 -3.004,-1.393 -3.004,-2.244 C -3.004,-3.004 -2.66,-3.383 -1.918,-3.383 C -0.688,-3.383 0,-2.334 0,-1.176 L 0,0 z M 4.216,-1.321 L 4.216,-1.864 C 4.216,-3.89 3.402,-4.741 1.882,-4.741 C 0.977,-4.741 0.199,-4.361 0.054,-3.402 C -0.615,-4.415 -1.773,-4.741 -2.913,-4.741 C -4.325,-4.741 -5.428,-4.072 -5.428,-2.443 C -5.428,1.068 0,-0.634 0,1.918 C 0,3.076 -0.977,3.293 -1.936,3.293 C -2.443,3.293 -3.294,3.13 -3.619,2.696 C -2.949,2.786 -2.425,2.497 -2.425,1.755 C -2.425,0.941 -2.986,0.687 -3.692,0.687 C -4.47,0.687 -4.994,1.285 -4.994,2.027 C -4.994,3.872 -2.787,4.27 -1.357,4.27 C 1.086,4.27 2.135,3.166 2.135,1.646 L 2.135,-2.787 C 2.135,-3.185 2.298,-3.383 2.569,-3.383 C 2.84,-3.383 3.058,-3.13 3.058,-2.009 L 3.058,-1.321 L 4.216,-1.321 z "
             id="path27879" />
        </g>
      </g>
      <g
         transform="matrix(1,0,0,-1,-129.64084,1153.1863)"
         clip-path="url(#id298)"
         id="g27881">
        <g
           transform="translate(185.4701,125.95)"
           id="g27883">
          <path
             style="fill:#ffffff;fill-rule:nonzero;stroke:none"
             d="M 0,0 L -0.631,0 C -0.872,0 -1.057,-0.187 -1.057,-0.448 C -1.057,-0.579 -0.964,-0.915 -0.835,-1.346 L 0.482,-5.495 L 0.52,-5.495 L 1.947,-1.346 C 2.096,-0.915 2.17,-0.579 2.17,-0.448 C 2.17,-0.187 1.984,0 1.743,0 L 0.908,0 L 0.908,1.234 L 5.025,1.234 L 5.025,0 C 4.191,-0.056 3.894,-0.336 3.727,-0.822 L 1.354,-7.512 L -1.039,-7.512 L -3.467,-0.56 C -3.597,-0.168 -3.783,0 -4.673,0 L -4.673,1.234 L 0,1.234 L 0,0 z "
             id="path27885" />
        </g>
        <g
           transform="translate(196.3121,123.8911)"
           id="g27887">
          <path
             style="fill:#ffffff;fill-rule:nonzero;stroke:none"
             d="M 0,0 C 0.018,1.148 -0.346,2.277 -1.64,2.277 C -2.878,2.277 -3.334,1.148 -3.388,0 L 0,0 z M -3.388,-1.202 C -3.443,-2.624 -3.006,-4.154 -1.311,-4.154 C 0,-4.154 0.656,-3.479 0.893,-2.223 L 2.405,-2.223 C 2.169,-4.3 0.911,-5.521 -1.512,-5.521 C -4.336,-5.521 -5.83,-3.935 -5.83,-0.984 C -5.83,1.677 -4.118,3.553 -1.603,3.553 C 1.385,3.553 2.642,0.875 2.442,-1.202 L -3.388,-1.202 z "
             id="path27889" />
        </g>
      </g>
    </g>
  </g>
</svg>
